<svg width="50" height="56" viewBox="0 0 50 56" fill="none" xmlns="http://www.w3.org/2000/svg">
<g clip-path="url(#clip0)">
<path d="M2.08 12.75L23.36 1.08C23.9598 0.749978 24.6343 0.579429 25.3189 0.584682C26.0035 0.589935 26.6753 0.770813 27.27 1.11L48 12.96C48.6089 13.3116 49.1145 13.8175 49.4656 14.4267C49.8167 15.0359 50.001 15.7269 50 16.43V39.97C50.0003 40.6842 49.8095 41.3854 49.4472 42.0009C49.085 42.6164 48.5645 43.1236 47.94 43.47L27.24 54.94C26.653 55.2652 25.9936 55.4374 25.3226 55.4409C24.6515 55.4444 23.9904 55.279 23.4 54.96L2.1 43.46C1.46501 43.1172 0.934571 42.6091 0.564873 41.9894C0.195174 41.3697 -1.02494e-05 40.6616 4.03672e-10 39.94L4.03673e-10 16.26C0.00162564 15.5438 0.195501 14.8412 0.56138 14.2256C0.927259 13.6099 1.45172 13.1038 2.08 12.76V12.75Z" fill="url(#paint0_linear)"/>
<path d="M41.2973 37.2323C39.2187 40.9107 30.2372 39.7143 21.2364 34.5602C12.2357 29.4061 6.62414 22.246 8.70271 18.5677C10.7813 14.8893 19.7628 16.0857 28.7636 21.2398C37.7643 26.3939 43.3758 33.554 41.2973 37.2323Z" stroke="white" stroke-width="1.5"/>
<path d="M41.2973 18.4677C39.2187 14.7893 30.2372 15.9857 21.2364 21.1398C12.2357 26.2939 6.62414 33.454 8.70271 37.1323C10.7813 40.8107 19.7628 39.6143 28.7636 34.4602C37.7643 29.3061 43.3758 22.146 41.2973 18.4677Z" stroke="white" stroke-width="1.5"/>
<path d="M25.07 8.98C20.8671 8.98 17.46 17.4284 17.46 27.85C17.46 38.2716 20.8671 46.72 25.07 46.72C29.2729 46.72 32.68 38.2716 32.68 27.85C32.68 17.4284 29.2729 8.98 25.07 8.98Z" stroke="white" stroke-width="1.5"/>
<path d="M28.04 27.72C28.04 26.03 26.6789 24.66 25 24.66C23.321 24.66 21.96 26.03 21.96 27.72C21.96 29.41 23.321 30.78 25 30.78C26.6789 30.78 28.04 29.41 28.04 27.72Z" fill="white"/>
</g>
<defs>
<linearGradient id="paint0_linear" x1="24" y1="76" x2="26" y2="19.5" gradientUnits="userSpaceOnUse">
<stop stop-color="#F231A5"/>
<stop offset="1" stop-color="#FF66C2"/>
</linearGradient>
<clipPath id="clip0">
<rect width="50" height="56" fill="white"/>
</clipPath>
</defs>
</svg>
